<?xml version="1.0" standalone="no"?>
<!DOCTYPE svg PUBLIC "-//W3C//DTD SVG 20010904//EN"
 "http://www.w3.org/TR/2001/REC-SVG-20010904/DTD/svg10.dtd">
<svg version="1.0" xmlns="http://www.w3.org/2000/svg"
 width="690.000000pt" height="690.000000pt" viewBox="0 0 690.000000 690.000000"
 preserveAspectRatio="xMidYMid meet">
<metadata>
Created by potrace 1.11, written by Peter Selinger 2001-2013
</metadata>
<g transform="translate(0.000000,690.000000) scale(0.100000,-0.100000)"
fill="#000000" stroke="none">
<path d="M0 4379 l0 -2521 30 6 c75 15 86 15 99 7 10 -7 12 -21 7 -57 -9 -72
-27 -92 -86 -100 l-50 -7 0 -853 0 -854 495 0 495 0 1 138 c3 297 48 871 70
897 5 5 9 22 9 37 0 37 20 36 73 -1 42 -30 141 -84 292 -160 89 -45 217 -95
345 -136 47 -15 146 -47 220 -72 136 -45 399 -112 520 -133 36 -6 99 -18 140
-25 79 -15 252 -37 485 -61 317 -33 775 -39 985 -13 47 5 121 14 165 19 206
22 637 92 680 110 11 4 52 15 90 23 160 35 181 40 199 49 20 11 139 45 271 79
44 11 130 38 190 59 61 20 133 43 160 49 28 6 64 18 80 26 51 23 99 42 125 50
55 15 183 71 345 150 94 46 182 87 198 90 15 4 27 11 27 16 0 5 4 9 9 9 4 0
47 22 95 50 48 27 92 50 98 50 7 0 8 -16 4 -47 -3 -27 -10 -93 -16 -148 -9
-92 -15 -174 -37 -480 -10 -138 -10 -561 0 -597 4 -16 13 -28 20 -28 9 0 11
52 9 227 -4 256 20 715 43 831 3 15 8 102 12 194 l6 168 -25 19 c-45 36 -169
237 -282 456 -20 39 -36 73 -36 77 0 3 -22 53 -48 110 -52 110 -101 258 -132
398 -7 30 -18 73 -25 95 -7 22 -16 63 -19 90 -3 28 -17 113 -31 190 -60 332
-79 843 -41 1105 28 199 66 396 86 445 4 11 23 67 41 125 60 187 183 399 316
546 15 17 35 40 43 50 51 65 108 132 128 150 l22 21 0 802 0 801 -3450 0
-3450 0 0 -2521z m4365 1992 c128 -20 184 -34 334 -83 156 -51 178 -72 199
-188 33 -178 239 -343 531 -425 127 -35 274 -35 346 0 28 14 54 25 58 25 16 0
102 -102 153 -180 16 -25 32 -47 35 -50 6 -5 14 -18 70 -117 12 -21 26 -44 31
-50 11 -13 78 -149 78 -157 0 -2 15 -37 34 -78 19 -40 40 -93 46 -118 7 -25
15 -49 19 -55 5 -5 16 -35 26 -65 9 -30 21 -62 25 -70 4 -9 13 -42 20 -73 13
-54 12 -62 -18 -155 -63 -198 -71 -235 -107 -467 -14 -89 -29 -164 -41 -204
-6 -18 -34 6 -84 74 -20 28 -61 75 -90 105 -203 213 -208 218 -305 295 -21 17
-54 44 -74 61 -63 54 -170 134 -179 134 -5 0 -16 8 -25 18 -9 10 -47 34 -84
53 -38 18 -70 37 -73 40 -10 11 -258 128 -325 152 -248 91 -430 132 -590 131
-136 -1 -339 -31 -370 -54 -5 -4 -34 -13 -63 -20 -30 -7 -72 -27 -95 -44 -80
-61 -136 -96 -152 -96 -9 0 -30 7 -47 16 -43 22 -59 4 -24 -31 31 -31 31 -33
9 -57 -36 -40 -87 -148 -102 -217 -23 -107 -9 -305 28 -396 5 -11 16 -45 25
-76 41 -140 269 -420 516 -632 52 -45 97 -84 100 -87 3 -4 15 -13 28 -22 12
-8 39 -30 60 -49 20 -19 55 -47 77 -64 22 -16 65 -52 95 -80 31 -27 80 -71
110 -96 392 -332 500 -433 500 -467 0 -13 -19 -27 -67 -49 -122 -55 -514 -160
-688 -183 -38 -5 -104 -14 -145 -19 -41 -6 -158 -17 -260 -26 -102 -8 -207
-17 -235 -20 -80 -8 -578 13 -725 30 -127 14 -165 20 -330 47 -59 9 -255 59
-370 92 -25 8 -70 21 -101 29 -93 26 -206 74 -379 159 -165 82 -260 147 -260
178 0 60 276 387 460 545 74 63 151 118 157 111 4 -4 10 -40 14 -79 12 -126
69 -285 145 -405 33 -50 64 -68 64 -37 0 9 -8 28 -18 43 -27 42 -40 63 -63
112 -20 41 -29 71 -73 230 -9 30 -16 83 -16 117 0 54 3 64 28 87 35 32 70 63
102 87 95 72 276 213 286 223 7 6 36 31 65 56 102 87 279 277 279 300 0 16 57
30 125 30 42 0 77 5 81 11 12 20 -17 34 -74 34 -71 0 -76 13 -34 98 66 136 68
250 10 420 -22 61 -17 80 23 92 22 7 43 41 34 56 -4 6 -23 0 -50 -16 -24 -14
-52 -25 -62 -25 -16 0 -59 30 -112 80 -57 52 -145 93 -276 127 -94 24 -378 24
-510 -1 -102 -20 -207 -50 -248 -72 -15 -8 -46 -16 -70 -17 -42 -2 -42 -2 -39
32 2 34 43 166 61 199 6 9 19 37 30 62 32 71 130 247 154 275 4 6 16 22 25 36
58 89 84 121 180 221 59 60 110 115 114 122 9 16 200 165 253 198 138 85 400
205 490 224 38 8 97 23 130 33 80 25 197 51 228 51 14 0 55 7 90 15 110 26
253 34 507 30 177 -3 278 -10 365 -24z"/>
<path d="M2995 3900 c-58 -11 -163 -61 -193 -93 -12 -12 -30 -43 -42 -69 -20
-46 -20 -46 -1 -90 28 -63 66 -83 199 -104 97 -16 124 -16 198 -6 143 21 206
57 240 138 38 90 9 156 -88 199 -53 24 -78 29 -163 31 -55 2 -122 -1 -150 -6z"/>
<path d="M3021 2657 c-93 -32 -74 -54 24 -28 22 6 79 11 128 11 68 0 87 3 87
14 0 20 -23 26 -103 26 -48 -1 -94 -8 -136 -23z"/>
</g>
</svg>
